<mxfile host="app.diagrams.net" modified="2021-12-12T13:31:19.814Z" agent="5.0 (Macintosh; Intel Mac OS X 10_15_7) AppleWebKit/537.36 (KHTML, like Gecko) Chrome/96.0.4664.93 Safari/537.36" etag="PMiv4-3gq8WEIUdI87Qn" version="15.9.4" type="github">
  <diagram id="kgpKYQtTHZ0yAKxKKP6v" name="Page-1">
    <mxGraphModel dx="1799" dy="571" grid="1" gridSize="10" guides="1" tooltips="1" connect="1" arrows="1" fold="1" page="1" pageScale="1" pageWidth="850" pageHeight="1100" math="0" shadow="0">
      <root>
        <mxCell id="0" />
        <mxCell id="1" parent="0" />
        <mxCell id="3nuBFxr9cyL0pnOWT2aG-1" value=":Device" style="shape=umlLifeline;perimeter=lifelinePerimeter;container=1;collapsible=0;recursiveResize=0;rounded=0;shadow=0;strokeWidth=1;" parent="1" vertex="1">
          <mxGeometry x="179" y="80" width="100" height="460" as="geometry" />
        </mxCell>
        <mxCell id="3nuBFxr9cyL0pnOWT2aG-2" value="" style="points=[];perimeter=orthogonalPerimeter;rounded=0;shadow=0;strokeWidth=1;" parent="3nuBFxr9cyL0pnOWT2aG-1" vertex="1">
          <mxGeometry x="45" y="70" width="10" height="390" as="geometry" />
        </mxCell>
        <mxCell id="3nuBFxr9cyL0pnOWT2aG-3" value="Register" style="verticalAlign=bottom;startArrow=oval;endArrow=block;startSize=8;shadow=0;strokeWidth=1;" parent="3nuBFxr9cyL0pnOWT2aG-1" target="3nuBFxr9cyL0pnOWT2aG-2" edge="1">
          <mxGeometry relative="1" as="geometry">
            <mxPoint x="-15" y="70" as="sourcePoint" />
          </mxGeometry>
        </mxCell>
        <mxCell id="3nuBFxr9cyL0pnOWT2aG-4" value="" style="points=[];perimeter=orthogonalPerimeter;rounded=0;shadow=0;strokeWidth=1;" parent="3nuBFxr9cyL0pnOWT2aG-1" vertex="1">
          <mxGeometry x="50" y="232" width="10" height="80" as="geometry" />
        </mxCell>
        <mxCell id="C2U9HuYAeTP8XwX2KnLO-2" value="" style="html=1;points=[];perimeter=orthogonalPerimeter;" vertex="1" parent="3nuBFxr9cyL0pnOWT2aG-1">
          <mxGeometry x="40" y="352" width="10" height="80" as="geometry" />
        </mxCell>
        <mxCell id="C2U9HuYAeTP8XwX2KnLO-4" value="" style="html=1;points=[];perimeter=orthogonalPerimeter;" vertex="1" parent="3nuBFxr9cyL0pnOWT2aG-1">
          <mxGeometry x="39" y="71" width="10" height="80" as="geometry" />
        </mxCell>
        <mxCell id="C2U9HuYAeTP8XwX2KnLO-9" value="Login" style="verticalAlign=bottom;startArrow=oval;endArrow=block;startSize=8;shadow=0;strokeWidth=1;" edge="1" parent="3nuBFxr9cyL0pnOWT2aG-1">
          <mxGeometry relative="1" as="geometry">
            <mxPoint x="-11" y="352" as="sourcePoint" />
            <mxPoint x="49" y="352" as="targetPoint" />
          </mxGeometry>
        </mxCell>
        <mxCell id="3nuBFxr9cyL0pnOWT2aG-5" value=":Server" style="shape=umlLifeline;perimeter=lifelinePerimeter;container=1;collapsible=0;recursiveResize=0;rounded=0;shadow=0;strokeWidth=1;" parent="1" vertex="1">
          <mxGeometry x="519" y="80" width="100" height="470" as="geometry" />
        </mxCell>
        <mxCell id="3nuBFxr9cyL0pnOWT2aG-6" value="" style="points=[];perimeter=orthogonalPerimeter;rounded=0;shadow=0;strokeWidth=1;" parent="3nuBFxr9cyL0pnOWT2aG-5" vertex="1">
          <mxGeometry x="45" y="80" width="10" height="390" as="geometry" />
        </mxCell>
        <mxCell id="C2U9HuYAeTP8XwX2KnLO-3" value="" style="html=1;points=[];perimeter=orthogonalPerimeter;" vertex="1" parent="3nuBFxr9cyL0pnOWT2aG-5">
          <mxGeometry x="50" y="147" width="10" height="83" as="geometry" />
        </mxCell>
        <mxCell id="3nuBFxr9cyL0pnOWT2aG-7" value="return" style="verticalAlign=bottom;endArrow=open;dashed=1;endSize=8;exitX=0;exitY=0.95;shadow=0;strokeWidth=1;" parent="1" edge="1">
          <mxGeometry relative="1" as="geometry">
            <mxPoint x="234" y="526" as="targetPoint" />
            <mxPoint x="564" y="526" as="sourcePoint" />
          </mxGeometry>
        </mxCell>
        <mxCell id="3nuBFxr9cyL0pnOWT2aG-8" value="h(ID, MPW) securely" style="verticalAlign=bottom;endArrow=block;entryX=0;entryY=0;shadow=0;strokeWidth=1;" parent="1" edge="1">
          <mxGeometry relative="1" as="geometry">
            <mxPoint x="234" y="229" as="sourcePoint" />
            <mxPoint x="564" y="229.00000000000023" as="targetPoint" />
            <Array as="points">
              <mxPoint x="409" y="229" />
            </Array>
          </mxGeometry>
        </mxCell>
        <mxCell id="3nuBFxr9cyL0pnOWT2aG-9" value="{Y,Msg}" style="verticalAlign=bottom;endArrow=block;entryX=1;entryY=0;shadow=0;strokeWidth=1;" parent="1" target="3nuBFxr9cyL0pnOWT2aG-4" edge="1">
          <mxGeometry relative="1" as="geometry">
            <mxPoint x="564" y="312" as="sourcePoint" />
          </mxGeometry>
        </mxCell>
        <mxCell id="C2U9HuYAeTP8XwX2KnLO-1" value="Actor" style="shape=umlActor;verticalLabelPosition=bottom;verticalAlign=top;html=1;outlineConnect=0;" vertex="1" parent="1">
          <mxGeometry x="70" y="74" width="30" height="56" as="geometry" />
        </mxCell>
        <mxCell id="C2U9HuYAeTP8XwX2KnLO-5" value="ID,PWD&lt;br&gt;a=h(PWD), b = G0a mod p,&lt;br&gt;MPW = h( ID || b)&amp;nbsp;" style="text;html=1;align=center;verticalAlign=middle;resizable=0;points=[];autosize=1;strokeColor=none;fillColor=none;" vertex="1" parent="1">
          <mxGeometry x="43" y="167" width="160" height="50" as="geometry" />
        </mxCell>
        <mxCell id="C2U9HuYAeTP8XwX2KnLO-7" value="Y =&amp;nbsp; h(ID)&lt;span id=&quot;docs-internal-guid-e49e2a0b-7fff-2932-c1dd-dcc5686d5943&quot;&gt;&lt;span style=&quot;background-color: rgb(255 , 255 , 255) ; vertical-align: baseline&quot;&gt;&lt;font style=&quot;font-size: 14px&quot;&gt;⊕&lt;/font&gt;&lt;/span&gt;&lt;/span&gt;salt &lt;br&gt;x= h( h(ID) || salt)&lt;br&gt;Generate Uid&lt;br&gt;Msg = Ex ( h(h(Uid), h(h(Uid)||h(ID) || salt))&lt;br&gt;Store h(Uid), h( ID), MPW securely&lt;br&gt;&amp;nbsp;Send ( {Y, Msg} )" style="text;html=1;align=left;verticalAlign=middle;resizable=0;points=[];autosize=1;strokeColor=none;fillColor=none;" vertex="1" parent="1">
          <mxGeometry x="588" y="225" width="240" height="90" as="geometry" />
        </mxCell>
        <mxCell id="C2U9HuYAeTP8XwX2KnLO-8" value="salt = Y&lt;span style=&quot;font-size: 14px ; text-align: left ; background-color: rgb(255 , 255 , 255)&quot;&gt;⊕ &lt;/span&gt;&lt;span style=&quot;text-align: left ; background-color: rgb(255 , 255 , 255)&quot;&gt;&lt;font style=&quot;font-size: 12px&quot;&gt;h(ID)&lt;br&gt;x = h( h(ID) || salt)&lt;br&gt;Dmsg = h(&lt;/font&gt;&lt;/span&gt;&lt;span style=&quot;text-align: left&quot;&gt;(h(Uid), h(h(Uid)||h(ID) || salt)&lt;br&gt;&lt;/span&gt;&lt;span style=&quot;text-align: left ; background-color: rgb(255 , 255 , 255)&quot;&gt;&lt;font style=&quot;font-size: 12px&quot;&gt;Store h(Uid) securely&lt;br&gt;&lt;/font&gt;&lt;/span&gt;" style="text;html=1;align=center;verticalAlign=middle;resizable=0;points=[];autosize=1;strokeColor=none;fillColor=none;" vertex="1" parent="1">
          <mxGeometry x="-10" y="310" width="230" height="60" as="geometry" />
        </mxCell>
      </root>
    </mxGraphModel>
  </diagram>
</mxfile>
